<svg width="30" height="30" viewBox="0 0 30 30" fill="none" xmlns="http://www.w3.org/2000/svg">
<path fill-rule="evenodd" clip-rule="evenodd" d="M30 15C30 23.2843 23.2843 30 15 30C6.71573 30 0 23.2843 0 15C0 6.71573 6.71573 0 15 0C23.2843 0 30 6.71573 30 15ZM11.0813 7.71291C11.0813 8.64673 10.3703 9.40245 9.25838 9.40245C8.18978 9.40245 7.47875 8.64673 7.50076 7.71291C7.47875 6.73371 8.18976 6 9.27967 6C10.3703 6 11.06 6.73371 11.0813 7.71291ZM7.59015 21.6136V10.7372H10.9706V21.6136H7.59015ZM13.5905 10.7387C13.6352 11.6952 13.6799 12.8518 13.6799 14.2085H13.6813V21.6158H17.0618V15.3431C17.0618 15.0309 17.1058 14.7201 17.1952 14.4973C17.4173 13.875 17.9729 13.23 18.9074 13.23C20.1307 13.23 20.6196 14.1858 20.6196 15.5879V21.6158H24.0001V15.1643C24.0001 11.9627 22.3319 10.4946 20.108 10.4946C18.3064 10.4946 17.1945 11.5391 16.7496 12.2288H16.6829L16.5268 10.7387H13.5905Z" fill="white"/>
</svg>
