<svg width="30" height="30" viewBox="0 0 30 30" fill="none" xmlns="http://www.w3.org/2000/svg">
<path d="M12.6429 18.1428L18.9286 15L12.6429 11.8571V18.1428Z" fill="white"/>
<path fill-rule="evenodd" clip-rule="evenodd" d="M15 30C23.2843 30 30 23.2843 30 15C30 6.71573 23.2843 0 15 0C6.71573 0 0 6.71573 0 15C0 23.2843 6.71573 30 15 30ZM4.19211 10.2394C4.2931 8.68465 5.5431 7.4662 7.09922 7.3891C9.35259 7.27746 12.5733 7.14282 15 7.14282C17.4267 7.14282 20.6474 7.27746 22.9008 7.3891C24.4569 7.4662 25.7069 8.68465 25.8079 10.2394C25.9046 11.729 26 13.5618 26 15C26 16.4381 25.9046 18.271 25.8079 19.7605C25.7069 21.3153 24.4569 22.5337 22.9008 22.6108C20.6474 22.7225 17.4267 22.8571 15 22.8571C12.5733 22.8571 9.35259 22.7225 7.09922 22.6108C5.5431 22.5337 4.2931 21.3153 4.19211 19.7605C4.09536 18.271 4 16.4381 4 15C4 13.5618 4.09536 11.729 4.19211 10.2394Z" fill="white"/>
</svg>
