<svg width="30" height="30" viewBox="0 0 30 30" fill="none" xmlns="http://www.w3.org/2000/svg">
<path fill-rule="evenodd" clip-rule="evenodd" d="M15 30C23.2843 30 30 23.2843 30 15C30 6.71573 23.2843 0 15 0C6.71573 0 0 6.71573 0 15C0 23.2843 6.71573 30 15 30ZM18.6367 7.67409C17.6876 7.63079 17.403 7.62161 14.9999 7.62161C12.5968 7.62161 12.3121 7.63079 11.3631 7.67409C10.4856 7.71411 10.0091 7.86072 9.69195 7.98398C9.27185 8.14724 8.97204 8.34227 8.65712 8.65722C8.34216 8.97214 8.14714 9.27195 7.98387 9.69204C7.86062 10.0092 7.714 10.4857 7.67399 11.3632C7.63069 12.3122 7.62151 12.5969 7.62151 15C7.62151 17.4031 7.63069 17.6877 7.67399 18.6367C7.714 19.5142 7.86062 19.9908 7.98387 20.3079C8.14714 20.728 8.3422 21.0278 8.65712 21.3427C8.97204 21.6577 9.27185 21.8527 9.69195 22.016C10.0091 22.1392 10.4856 22.2858 11.3631 22.3258C12.312 22.3691 12.5966 22.3783 14.9999 22.3783C17.4032 22.3783 17.6878 22.3691 18.6367 22.3258C19.5142 22.2858 19.9907 22.1392 20.3078 22.016C20.7279 21.8527 21.0277 21.6577 21.3427 21.3427C21.6576 21.0278 21.8526 20.728 22.0159 20.3079C22.1392 19.9908 22.2858 19.5142 22.3258 18.6367C22.3691 17.6877 22.3783 17.4031 22.3783 15C22.3783 12.5969 22.3691 12.3122 22.3258 11.3632C22.2858 10.4857 22.1392 10.0092 22.0159 9.69204C21.8526 9.27195 21.6576 8.97214 21.3427 8.65719C21.0277 8.34227 20.7279 8.14724 20.3078 7.98398C19.9907 7.86072 19.5142 7.71411 18.6367 7.67409ZM11.2892 6.05416C12.2491 6.01036 12.5556 6 14.9999 6C17.4441 6 17.7506 6.01036 18.7106 6.05416C19.6685 6.09785 20.3228 6.25001 20.8952 6.47247C21.4871 6.70247 21.989 7.01021 22.4893 7.51054C22.9897 8.01091 23.2974 8.51282 23.5274 9.10465C23.7499 9.67711 23.902 10.3314 23.9457 11.2893C23.9895 12.2492 23.9999 12.5557 23.9999 15C23.9999 17.4442 23.9895 17.7507 23.9457 18.7106C23.902 19.6686 23.7499 20.3228 23.5274 20.8953C23.2974 21.4871 22.9897 21.989 22.4893 22.4894C21.989 22.9897 21.4871 23.2975 20.8952 23.5274C20.3228 23.7499 19.6685 23.9021 18.7106 23.9458C17.7506 23.9896 17.4441 23.9999 14.9999 23.9999C12.5556 23.9999 12.2491 23.9896 11.2892 23.9458C10.3313 23.9021 9.67701 23.7499 9.10455 23.5274C8.51272 23.2975 8.01081 22.9897 7.51044 22.4894C7.0101 21.989 6.70236 21.4871 6.4724 20.8953C6.2499 20.3228 6.09774 19.6686 6.05405 18.7106C6.01025 17.7507 5.99989 17.4442 5.99989 15C5.99989 12.5557 6.01025 12.2492 6.05405 11.2893C6.09774 10.3314 6.2499 9.67711 6.4724 9.10465C6.70236 8.51282 7.0101 8.01091 7.51044 7.51054C8.01081 7.01021 8.51272 6.70247 9.10455 6.47247C9.67701 6.25001 10.3313 6.09785 11.2892 6.05416ZM15.0041 10.3824C12.4516 10.3824 10.3825 12.4516 10.3825 15.004C10.3825 17.5565 12.4516 19.6257 15.0041 19.6257C17.5566 19.6257 19.6257 17.5565 19.6257 15.004C19.6257 12.4516 17.5566 10.3824 15.0041 10.3824ZM15.0041 18.004C13.3473 18.004 12.0041 16.6609 12.0041 15.004C12.0041 13.3472 13.3473 12.0041 15.0041 12.0041C16.661 12.0041 18.0041 13.3472 18.0041 15.004C18.0041 16.6609 16.661 18.004 15.0041 18.004ZM19.8077 11.2772C20.4042 11.2772 20.8877 10.7937 20.8877 10.1973C20.8877 9.60079 20.4042 9.11725 19.8077 9.11725C19.2112 9.11725 18.7277 9.60079 18.7277 10.1973C18.7277 10.7937 19.2112 11.2772 19.8077 11.2772Z" fill="white"/>
</svg>
