<svg width="30" height="30" viewBox="0 0 30 30" fill="none" xmlns="http://www.w3.org/2000/svg">
<path fill-rule="evenodd" clip-rule="evenodd" d="M15 30C23.2843 30 30 23.2843 30 15C30 6.71573 23.2843 0 15 0C6.71573 0 0 6.71573 0 15C0 23.2843 6.71573 30 15 30ZM17.4901 9.55488C17.8872 9.55488 18.5186 9.62473 18.9861 9.71823L19.4063 7.07713C18.4949 6.89013 17.7937 6.74988 16.8356 6.74988C14.0779 6.74988 12.9795 8.05888 12.9795 10.3958V12.1019H11.2498V14.8602H12.9795V23.2499H16.345V14.8602H18.7985L19.0328 12.1019H16.345V10.7704C16.345 10.0224 16.4148 9.55488 17.4901 9.55488Z" fill="white"/>
</svg>
