<svg width="28" height="28" viewBox="0 0 28 28" fill="none" xmlns="http://www.w3.org/2000/svg">
<path d="M9.83692 22.5885C6.65538 21.04 4.45538 17.7823 4.45538 14C4.45541 12.6615 4.73798 11.338 5.28462 10.1162L9.83692 22.5885Z" fill="white"/>
<path d="M17.1731 23.0031C16.1746 23.35 15.1085 23.5446 14 23.5446C13.0608 23.5446 12.1554 23.4092 11.3092 23.1554L14.1692 14.8377L17.1054 22.8762L17.1731 23.0031Z" fill="white"/>
<path d="M18.7638 19.7877L15.3115 9.52385C15.8954 9.49 16.4115 9.43077 16.4115 9.43077C16.9277 9.37154 16.86 8.61846 16.3438 8.64385C16.3438 8.64385 14.8038 8.77077 13.8054 8.77077C12.8662 8.77077 11.2923 8.64385 11.2923 8.64385C10.7762 8.61846 10.7169 9.40538 11.2331 9.43923C11.565 9.47722 11.898 9.50544 12.2315 9.52385L13.7208 13.6023L11.6308 19.8638L8.14462 9.52385C8.72846 9.49846 9.24462 9.43077 9.24462 9.43077C9.76077 9.37154 9.70154 8.61846 9.17692 8.64385C9.17692 8.64385 7.63692 8.77077 6.63846 8.77077L6.02923 8.75385C6.89746 7.43285 8.08047 6.34842 9.47182 5.59809C10.8632 4.84777 12.4192 4.45509 14 4.45538C16.3874 4.45141 18.689 5.34546 20.4477 6.96H20.3292C19.3815 6.96 18.7215 7.77231 18.7215 8.65231C18.7215 9.37955 19.1129 10.0108 19.5646 10.7392C19.5964 10.7905 19.6285 10.8423 19.6608 10.8946C20.0162 11.5208 20.4392 12.3331 20.4392 13.5177C20.4392 14.2776 20.1709 15.1463 19.8087 16.3185C19.7797 16.4124 19.7501 16.5083 19.72 16.6062L18.7638 19.7877Z" fill="white"/>
<path d="M22.2729 18.7589C21.4399 20.2066 20.2416 21.4104 18.7977 22.25L21.7169 13.8223C22.3012 12.4339 22.5281 10.9211 22.3769 9.42231C23.1215 10.7846 23.5446 12.3415 23.5446 14C23.5444 15.6703 23.1059 17.3112 22.2729 18.7589Z" fill="white"/>
<path fill-rule="evenodd" clip-rule="evenodd" d="M14 28C21.732 28 28 21.732 28 14C28 6.26801 21.732 0 14 0C6.26801 0 0 6.26801 0 14C0 21.732 6.26801 28 14 28ZM6.22183 21.7782C8.28473 23.8411 11.0826 25 14 25C16.9174 25 19.7153 23.8411 21.7782 21.7782C23.8411 19.7153 25 16.9174 25 14C25 11.0826 23.8411 8.28473 21.7782 6.22183C19.7153 4.15893 16.9174 3 14 3C11.0826 3 8.28473 4.15893 6.22183 6.22183C4.15893 8.28473 3 11.0826 3 14C3 16.9174 4.15893 19.7153 6.22183 21.7782Z" fill="white"/>
</svg>
