<svg width="29" height="37" viewBox="0 0 29 37" fill="none" xmlns="http://www.w3.org/2000/svg">
<path d="M16.4379 34.3101C15.934 34.8554 15.1993 35.4006 14.2757 35.925C13.331 36.4703 12.0925 36.7429 10.5391 36.7429C8.56589 36.7429 6.90754 36.3653 5.58505 35.5894C4.24157 34.8344 3.17099 33.8068 2.33131 32.5484C1.51263 31.2692 0.903862 29.8011 0.547001 28.1233C0.190139 26.4456 0.00121226 24.684 0.00121226 22.8385C-0.0197796 20.5315 0.232123 18.5601 0.735928 16.9034C1.26072 15.2466 1.97445 13.8835 2.91908 12.8348C3.86371 11.7653 4.97629 10.9683 6.25679 10.444C7.5373 9.91974 8.98573 9.64709 10.5811 9.64709C11.8196 9.64709 12.8692 9.83585 13.751 10.2133C14.6325 10.5908 15.2413 10.9474 15.5982 11.2619V7.99032H13.394C13.331 7.31921 13.2891 6.64811 13.2471 5.99798C13.2051 5.32687 13.2051 4.65578 13.2051 3.98467C13.2051 3.31356 13.2261 2.64247 13.2471 1.99234C13.2681 1.32123 13.331 0.650131 13.394 0H26.43V28.1233H28.6341C28.6971 28.7945 28.739 29.4656 28.7811 30.1157C28.8021 30.7869 28.8231 31.4579 28.8231 32.1081C28.8231 32.7791 28.8021 33.4502 28.7811 34.1004C28.739 34.7715 28.6971 35.4426 28.6341 36.0927H16.6897L16.4379 34.3101ZM13.2891 28.7316C14.1078 28.7316 14.7374 28.3121 15.1784 27.4943C15.5982 26.6763 15.8291 25.2502 15.8291 23.2579C15.8291 21.2236 15.6191 19.7976 15.1784 18.9587C14.7586 18.1407 14.1288 17.7212 13.2891 17.7212C12.4914 17.7212 11.8826 18.1407 11.4838 18.9587C11.0639 19.7766 10.854 21.2236 10.854 23.2579C10.854 25.2502 11.0639 26.6763 11.4838 27.4943C11.9036 28.3121 12.4914 28.7316 13.2891 28.7316Z" fill="#063C91"/>
</svg>
