<svg width="24" height="24" viewBox="0 0 24 24" fill="none" xmlns="http://www.w3.org/2000/svg">
<path d="M3.83307 4H8.32301L9.77022 7.61803L7.44534 9.16795C7.16714 9.35342 7.00004 9.66565 7.00004 10C7.00258 10.0936 7.00004 10.001 7.00004 10.001L7.00004 10.002L7.00005 10.0043L7.00008 10.0093L7.00023 10.0217C7.00038 10.0309 7.00063 10.0421 7.00105 10.0552C7.0019 10.0814 7.00343 10.1153 7.00616 10.1564C7.01164 10.2385 7.02195 10.3494 7.04134 10.4852C7.0801 10.7565 7.15532 11.1281 7.30136 11.5662C7.59459 12.4459 8.17077 13.5849 9.29294 14.7071C10.4151 15.8293 11.5541 16.4054 12.4338 16.6987C12.8719 16.8447 13.2436 16.9199 13.5149 16.9587C13.6506 16.9781 13.7616 16.9884 13.8437 16.9939C13.8847 16.9966 13.9186 16.9981 13.9449 16.999C13.958 16.9994 13.9692 16.9997 13.9784 16.9998L13.9907 17L13.9958 17L13.998 17L13.999 17C13.999 17 14.1107 16.9939 14 17C14.3788 17 14.7251 16.786 14.8945 16.4472L15.5642 15.1078L20 15.8471V20.167C17.8889 20.4723 12.1874 20.7732 7.70715 16.2929C3.22685 11.8126 3.52776 6.1111 3.83307 4ZM9.07369 10.4861L10.8796 9.28213C11.6666 8.75751 11.9784 7.75338 11.6272 6.87525L10.18 3.25722C9.87624 2.4979 9.14082 2 8.32301 2H3.78082C2.87231 2 2.01713 2.63116 1.86799 3.6169C1.52868 5.8595 1.06683 12.481 6.29294 17.7071C11.519 22.9332 18.1405 22.4714 20.3831 22.1321C21.3689 21.9829 22 21.1277 22 20.2192V15.8471C22 14.8694 21.2932 14.0351 20.3288 13.8743L15.893 13.135C15.0269 12.9907 14.168 13.4281 13.7753 14.2134L13.4288 14.9064C13.3199 14.8796 13.1983 14.8453 13.0663 14.8013C12.446 14.5946 11.585 14.1707 10.7071 13.2929C9.82931 12.4151 9.40549 11.5541 9.19873 10.9338C9.14285 10.7662 9.10263 10.6154 9.07369 10.4861Z" fill="white"/>
</svg>
